<?xml version="1.0" encoding="utf-8"?>
<!-- Generator: Adobe Illustrator 17.0.0, SVG Export Plug-In . SVG Version: 6.00 Build 0)  -->
<!DOCTYPE svg PUBLIC "-//W3C//DTD SVG 1.1//EN" "http://www.w3.org/Graphics/SVG/1.1/DTD/svg11.dtd">
<svg version="1.1" id="Icons" xmlns="http://www.w3.org/2000/svg" xmlns:xlink="http://www.w3.org/1999/xlink" x="0px" y="0px"
	 width="800px" height="518px" viewBox="0 0 800 518" enable-background="new 0 0 800 518" xml:space="preserve">
<path fill-rule="evenodd" clip-rule="evenodd" fill="#81C975" d="M650.605,395.36h3.96l-3.46,3.46c2.02,8.89,9.96,15.54,19.48,15.54
	c10.72,0,19.44-8.42,19.97-19h2c-0.53,11.68-10.15,21-21.97,21c-10.05,0-18.47-6.73-21.12-15.91l-2.91,2.91v-8h2.05H650.605z
	 M668.365,389.53c-0.52,0.3-0.78,0.72-0.78,1.26c0,0.36,0.1,0.67,0.29,0.92c0.2,0.26,0.51,0.5,0.94,0.73
	c0.17,0.09,0.43,0.21,0.74,0.34v-3.63C669.075,389.23,668.665,389.35,668.365,389.53z M672.595,399.16c0.6-0.34,0.9-0.86,0.9-1.56
	c0-0.52-0.24-0.97-0.71-1.35c-0.27-0.21-0.69-0.44-1.23-0.69v3.97C671.955,399.44,672.305,399.32,672.595,399.16z M674.675,395.2
	c0.59,0.59,0.88,1.33,0.88,2.23c0,1.26-0.49,2.23-1.47,2.91c-0.66,0.46-1.51,0.75-2.53,0.9v2.12h-2v-2.02
	c-1.67-0.04-3-0.31-3.96-0.83v-1.9c0.68,0.33,1.4,0.59,2.18,0.78c0.61,0.15,1.2,0.22,1.78,0.25v-4.88c-1.07-0.4-1.87-0.75-2.36-1.06
	c-0.55-0.35-0.96-0.74-1.23-1.19c-0.27-0.44-0.41-0.97-0.41-1.59c0-1.1,0.47-1.97,1.4-2.6c0.68-0.47,1.55-0.76,2.6-0.88v-2.08h2
	v2.04c1.26,0.08,2.49,0.35,3.7,0.85l-0.76,1.66c-1.05-0.42-2.03-0.68-2.94-0.78v4.41C673.065,394.09,674.125,394.64,674.675,395.2z
	 M692.505,393.36h-2h-3.95l3.46-3.46c-2.03-8.89-9.95-15.54-19.46-15.54c-10.71,0-19.43,8.42-19.95,19h-2
	c0.53-11.68,10.14-21,21.95-21c10.03,0,18.45,6.73,21.09,15.91l2.91-2.91v8H692.505z"/>
<path fill-rule="evenodd" clip-rule="evenodd" fill="#EDC213" d="M587.385,401.33c0.48,0.5,1.27,0.5,1.75,0
	c0.48-0.51,0.48-1.32,0-1.83c-0.48-0.5-1.27-0.5-1.75,0C586.905,400.01,586.905,400.82,587.385,401.33z M584.885,394.69l0.97-1.01
	l4.49,4.69c0.11,0.09,0.22,0.19,0.32,0.29c1.13,1.18,1.13,3.09,0,4.27c-1.12,1.18-2.95,1.18-4.08,0c-0.1-0.11-0.2-0.22-0.28-0.34
	l-5.52-5.78l1.6-1.67C583.185,395.55,584.235,395.37,584.885,394.69z M574.595,398.95l4.11-4.3l2.55-2.66l-0.52-0.55
	c-0.13-0.14-0.21-0.33-0.21-0.54c0-0.2,0.07-0.39,0.21-0.54l0.98-1.02l6.27-6.56c0.28-0.29,0.76-0.29,1.04,0l2.07,2.17
	c0.29,0.29,0.29,0.78,0,1.08l-6.28,6.56l-0.97,1.02c-0.27,0.29-0.76,0.29-1.04,0l-0.51-0.54l-2.55,2.66l-4.12,4.31l-0.23,2.22
	l-4.39,1.53l1.46-4.59L574.595,398.95z M573.065,390.04l4.17-1.16l1.12-4.36l-3.49-3.65c1.84-0.26,3.78,0.35,5.2,1.83
	c1.15,1.2,1.74,2.75,1.79,4.32l-2.15,2.26c-0.42,0.43-0.65,1.01-0.65,1.62c0,0.35,0.08,0.69,0.22,0.99l-1.6,1.68l-0.12-0.13
	c-2.13,0.7-4.55,0.17-6.23-1.59c-1.43-1.49-2.01-3.52-1.76-5.46L573.065,390.04z M602.555,377.36h-44v30h44V377.36z M602.555,409.36
	h-15v3h3v2h-20v-2h3v-3h-15c-1.1,0-2-0.9-2-2v-30c0-1.1,0.9-2,2-2h44c1.1,0,2,0.9,2,2v30
	C604.555,408.46,603.655,409.36,602.555,409.36z"/>
<path fill-rule="evenodd" clip-rule="evenodd" fill="#1384ED" d="M508.995,384.36h-7.65c0.7,2.74,1.12,5.78,1.19,9h8.98
	C511.355,390.11,510.455,387.06,508.995,384.36z M496.315,374.18c1.83,1.93,3.37,4.76,4.46,8.18h6.99
	C505.035,378.45,501.015,375.52,496.315,374.18z M491.555,373.47v8.89h7.19C497.115,377.47,494.535,374.09,491.555,373.47z
	 M480.575,395.36c0.08,3.25,0.5,6.3,1.2,9h7.78v-9H480.575z M489.555,384.36h-7.78c-0.7,2.7-1.12,5.75-1.2,9h8.98V384.36z
	 M489.555,373.47c-2.98,0.62-5.56,4-7.19,8.89h7.19V373.47z M473.345,382.36h6.99c1.09-3.42,2.63-6.25,4.46-8.18
	C480.095,375.52,476.075,378.45,473.345,382.36z M469.595,393.36h8.98c0.07-3.22,0.49-6.26,1.19-9h-7.65
	C470.655,387.06,469.755,390.11,469.595,393.36z M472.115,404.36h7.65c-0.7-2.74-1.12-5.78-1.19-9h-8.98
	C469.755,398.61,470.655,401.66,472.115,404.36z M484.795,414.54c-1.83-1.93-3.37-4.76-4.46-8.18h-6.99
	C476.075,410.27,480.095,413.2,484.795,414.54z M489.555,415.25v-8.89h-7.19C483.995,411.25,486.575,414.63,489.555,415.25z
	 M498.745,406.36h-7.19v8.89C494.535,414.63,497.115,411.25,498.745,406.36z M507.765,406.36h-6.99c-1.09,3.42-2.63,6.25-4.46,8.18
	C501.015,413.2,505.035,410.27,507.765,406.36z M511.515,395.36h-8.98c-0.07,3.22-0.49,6.26-1.19,9h7.65
	C510.455,401.66,511.355,398.61,511.515,395.36z M491.555,393.36h8.98c-0.08-3.25-0.5-6.3-1.2-9h-7.78V393.36z M500.535,395.36
	h-8.98v9h7.78C500.035,401.66,500.455,398.61,500.535,395.36z M490.555,417.36c-12.7,0-23-10.3-23-23c0-12.7,10.3-23,23-23
	c12.7,0,23,10.3,23,23C513.555,407.06,503.255,417.36,490.555,417.36z"/>
<path fill-rule="evenodd" clip-rule="evenodd" fill="#D45EBA" d="M387.555,378.36c-1.66,0-3,1.34-3,3c0,1.66,1.34,3,3,3s3-1.34,3-3
	C390.555,379.7,389.215,378.36,387.555,378.36z M387.555,386.36c-2.76,0-5-2.24-5-5c0-2.76,2.24-5,5-5c2.76,0,5,2.24,5,5
	C392.555,384.12,390.315,386.36,387.555,386.36z M397.595,372.36h-19.06v17.6l25.73,26.4l18.11-18.58L397.595,372.36z
	 M423.795,399.18l-18.1,18.58c-0.38,0.38-0.89,0.6-1.43,0.6c-0.53,0-1.05-0.22-1.42-0.6l-25.73-26.4c-0.37-0.37-0.57-0.88-0.57-1.4
	v-17.6c0-1.1,0.89-2,1.99-2h19.06c0.54,0,1.05,0.22,1.43,0.6l24.77,25.42C424.555,397.16,424.555,398.4,423.795,399.18z"/>
<path fill-rule="evenodd" clip-rule="evenodd" fill="#81C975" d="M311.555,402.18v2.18h-2v-2.18c-1.16-0.42-2-1.52-2-2.82
	c0-1.3,0.84-2.4,2-2.82v-10.18h2v10.18c1.16,0.42,2,1.52,2,2.82C313.555,400.66,312.715,401.76,311.555,402.18z M310.555,383.36
	c-8.84,0-16,7.16-16,16c0,8.84,7.16,16,16,16s16-7.16,16-16C326.555,390.52,319.395,383.36,310.555,383.36z M311.555,381.41
	c9.47,0.52,17,8.35,17,17.95c0,9.94-8.06,18-18,18s-18-8.06-18-18c0-9.6,7.53-17.43,17-17.95v-4.05h-3v-4h3h2h3v4h-3V381.41z
	 M322.725,381.95l1.42-1.42l4.24,4.24l-1.42,1.42L322.725,381.95z"/>
<path fill-rule="evenodd" clip-rule="evenodd" fill="#EDC213" d="M217.555,401.36c0-1.66,1.34-3,3-3c1.66,0,3,1.34,3,3
	c0,1.21-0.72,2.25-1.76,2.72l1.76,5.28h-6l1.76-5.28C218.275,403.61,217.555,402.57,217.555,401.36z M236.555,392.36h-32v22h32
	V392.36z M230.555,383.86c0-5.25-4.25-9.5-9.5-9.5h-1c-5.25,0-9.5,4.25-9.5,9.5v6.5h20V383.86z M236.555,416.36h-32
	c-1.1,0-2-0.9-2-2v-22c0-1.1,0.9-2,2-2h4v-6.5c0-6.35,5.15-11.5,11.5-11.5h1c6.35,0,11.5,5.15,11.5,11.5v6.5h4c1.1,0,2,0.9,2,2v22
	C238.555,415.46,237.655,416.36,236.555,416.36z"/>
<path fill-rule="evenodd" clip-rule="evenodd" fill="#BB9066" d="M143.555,410.36c0.55,0,1-0.45,1-1c0-0.55-0.45-1-1-1
	c-0.55,0-1,0.45-1,1C142.555,409.91,143.005,410.36,143.555,410.36z M143.555,406.36c1.66,0,3,1.34,3,3c0,1.66-1.34,3-3,3
	c-1.66,0-3-1.34-3-3C140.555,407.7,141.895,406.36,143.555,406.36z M125.555,410.36c0.55,0,1-0.45,1-1c0-0.55-0.45-1-1-1
	s-1,0.45-1,1C124.555,409.91,125.005,410.36,125.555,410.36z M125.555,406.36c1.66,0,3,1.34,3,3c0,1.66-1.34,3-3,3
	c-1.66,0-3-1.34-3-3C122.555,407.7,123.895,406.36,125.555,406.36z M154.055,386.36h-35.7l0.96,4h32.74c0.28,0,0.5,0.22,0.5,0.5v1
	c0,0.28-0.22,0.5-0.5,0.5h-32.26l0.96,4h29.3c0.28,0,0.5,0.22,0.5,0.5v1c0,0.28-0.22,0.5-0.5,0.5h-28.82l0.96,4h25.86
	c0.28,0,0.5,0.22,0.5,0.5v1c0,0.28-0.22,0.5-0.5,0.5h-26h-1c-0.28,0-0.5-0.22-0.5-0.5l-5.64-23.5h-7.86c-0.28,0-0.5-0.22-0.5-0.5v-1
	c0-0.28,0.22-0.5,0.5-0.5h8h1c0.28,0,0.5,0.22,0.5,0.5l1.32,5.5h36.18c0.28,0,0.5,0.22,0.5,0.5v1
	C154.555,386.14,154.335,386.36,154.055,386.36z"/>
<path fill-rule="evenodd" clip-rule="evenodd" fill="#D45EBA" d="M692.555,303.36h-17c0,1.1-0.9,2-2,2h-6c-1.1,0-2-0.9-2-2h-17v17
	h44V303.36z M667.555,301.36v2h6v-2H667.555z M692.555,292.36h-14h-16h-14v9h17c0-1.1,0.9-2,2-2h6c1.1,0,2,0.9,2,2h17V292.36z
	 M678.555,286.36h-16v4h16V286.36z M692.555,322.36h-44c-1.1,0-2-0.9-2-2v-28c0-1.1,0.9-2,2-2h12v-4c0-1.1,0.9-2,2-2h16
	c1.1,0,2,0.9,2,2v4h12c1.1,0,2,0.9,2,2v28C694.555,321.46,693.655,322.36,692.555,322.36z"/>
<path fill-rule="evenodd" clip-rule="evenodd" fill="#ED5113" d="M580.555,291.36c-3.87,0-7,3.13-7,7c0,3.87,3.13,7,7,7s7-3.13,7-7
	C587.555,294.49,584.425,291.36,580.555,291.36z M580.555,307.36c-4.97,0-9-4.03-9-9c0-4.97,4.03-9,9-9c4.97,0,9,4.03,9,9
	C589.555,303.33,585.525,307.36,580.555,307.36z M588.185,289.39l-0.66-4.42l-3.99,2l-2.5-3.7l-2.74,3.54l-3.86-2.25l-0.93,4.37
	l-4.45-0.35l1.06,4.34l-4.16,1.62l2.83,3.45l-3.04,3.26l4.05,1.88l-1.33,4.27l4.46-0.07l0.66,4.42l3.99-2l2.5,3.7l2.74-3.54
	l3.86,2.25l0.93-4.37l4.45,0.35l-1.06-4.34l4.16-1.62l-2.83-3.45l3.04-3.26l-4.05-1.88l1.33-4.27L588.185,289.39z M566.595,319.69
	l4.46,0.27l2.46,3.73l5.23-9.05l-0.7-1.04l-1.96-1.13l-3.9,1.95l-0.52-3.52L566.595,319.69z M586.595,323.69l2.46-3.73l4.46-0.27
	l-4.85-8.4l-0.77,3.63l-4.04-2.35l-1.55,0.89l-0.93,1.2L586.595,323.69z M598.335,294.89l-3.66,3.91l3.4,4.14l-4.99,1.95l1.27,5.2
	l-4.26-0.33l6.66,11.53l-6.7,0.4l-3.7,5.6l-6.3-10.92l-0.01,0.02l-6.29,10.9l-3.7-5.6l-6.7-0.4l7.02-12.15l-4.33,0.06l1.59-5.11
	l-4.86-2.26l3.66-3.91l-3.4-4.14l4.99-1.95l-1.27-5.2l5.34,0.41l1.12-5.24l4.63,2.69l3.28-4.23l3.01,4.43l4.79-2.39l0.78,5.3
	l5.36-0.08l-1.59,5.11L598.335,294.89z"/>
<path fill-rule="evenodd" clip-rule="evenodd" fill="#BB9066" d="M507.555,295.36c-0.55,0-1,0.45-1,1c0,0.55,0.45,1,1,1
	c0.55,0,1-0.45,1-1C508.555,295.81,508.105,295.36,507.555,295.36z M500.555,304.36c-0.55,0-1,0.45-1,1c0,0.55,0.45,1,1,1
	c0.55,0,1-0.45,1-1C501.555,304.81,501.105,304.36,500.555,304.36z M488.555,312.36c-0.55,0-1,0.45-1,1c0,0.55,0.45,1,1,1
	c0.55,0,1-0.45,1-1C489.555,312.81,489.105,312.36,488.555,312.36z M472.555,316.36c-0.55,0-1,0.45-1,1c0,0.55,0.45,1,1,1
	c0.55,0,1-0.45,1-1C473.555,316.81,473.105,316.36,472.555,316.36z M508.945,293.72c0.95,0.5,1.61,1.49,1.61,2.64c0,1.66-1.34,3-3,3
	c-0.41,0-0.79-0.08-1.15-0.23c-0.96,1.63-2.05,3.19-3.3,4.66c0.28,0.46,0.45,0.99,0.45,1.57c0,1.66-1.34,3-3,3
	c-0.57,0-1.11-0.17-1.56-0.45c-2.24,1.91-4.75,3.61-7.48,5.06c0.02,0.13,0.04,0.25,0.04,0.39c0,1.66-1.34,3-3,3
	c-0.91,0-1.72-0.42-2.27-1.06c-3.38,1.27-7,2.19-10.79,2.67c-0.29,1.36-1.49,2.39-2.94,2.39c-1.66,0-3-1.34-3-3c0-1.66,1.34-3,3-3
	c1.16,0,2.16,0.67,2.66,1.63c3.64-0.45,7.11-1.33,10.35-2.53l-0.01-0.1c0-1.66,1.34-3,3-3c0.81,0,1.55,0.33,2.09,0.85
	c2.6-1.37,4.98-2.98,7.11-4.8c-0.12-0.33-0.2-0.68-0.2-1.05c0-1.66,1.34-3,3-3c0.38,0,0.73,0.08,1.06,0.2
	c1.28-1.49,2.38-3.08,3.34-4.74c-0.25-0.43-0.4-0.93-0.4-1.46c0-1.47,1.06-2.69,2.46-2.95c0.83-2.25,1.36-4.61,1.55-7.05h-3.01l4-5
	l4,5h-3.08C510.295,288.9,509.765,291.36,508.945,293.72z M467.555,324.36v-2h46v2H467.555z"/>
<path fill-rule="evenodd" clip-rule="evenodd" fill="#EDC213" d="M394.055,325.36h13c0.28,0,0.5,0.22,0.5,0.5v1
	c0,0.28-0.22,0.5-0.5,0.5h-13c-0.28,0-0.5-0.22-0.5-0.5v-1C393.555,325.58,393.775,325.36,394.055,325.36z M394.055,322.36h13
	c0.28,0,0.5,0.22,0.5,0.5v1c0,0.28-0.22,0.5-0.5,0.5h-13c-0.28,0-0.5-0.22-0.5-0.5v-1C393.555,322.58,393.775,322.36,394.055,322.36
	z M400.555,282.36c-8.28,0-15,6.72-15,15c0,6,3.53,11.16,8.62,13.56c0.36-0.35,0.84-0.56,1.38-0.56v9h4v-12.59l-5.54-5.53l1.42-1.42
	l5.12,5.13l5.12-5.13l1.42,1.42l-5.54,5.53v12.59h4v-9c0.54,0,1.02,0.21,1.38,0.56c5.09-2.4,8.62-7.56,8.62-13.56
	C415.555,289.08,408.835,282.36,400.555,282.36z M407.555,312.84v6.52c0,1.1-0.9,2-2,2h-10c-1.1,0-2-0.9-2-2v-6.52
	c-5.89-2.67-10-8.59-10-15.48c0-9.39,7.61-17,17-17c9.39,0,17,7.61,17,17C417.555,304.25,413.445,310.17,407.555,312.84z"/>
<path fill-rule="evenodd" clip-rule="evenodd" fill="#D45EBA" d="M307.555,293.36c0,0.55,0.45,1,1,1c0.55,0,1-0.45,1-1
	c0-0.55-0.45-1-1-1C308.005,292.36,307.555,292.81,307.555,293.36z M311.555,293.36c0,1.66-1.34,3-3,3s-3-1.34-3-3
	c0-1.66,1.34-3,3-3S311.555,291.7,311.555,293.36z M310.555,304.36c0,1.1,0.9,2,2,2s2-0.9,2-2c0-1.1-0.9-2-2-2
	S310.555,303.26,310.555,304.36z M316.555,304.36c0,2.21-1.79,4-4,4c-2.21,0-4-1.79-4-4c0-2.21,1.79-4,4-4
	C314.765,300.36,316.555,302.15,316.555,304.36z M311.555,283.36c-1.1,0-2,0.9-2,2c0,1.1,0.9,2,2,2s2-0.9,2-2
	C313.555,284.26,312.655,283.36,311.555,283.36z M311.555,289.36c-2.21,0-4-1.79-4-4c0-2.21,1.79-4,4-4c2.21,0,4,1.79,4,4
	C315.555,287.57,313.765,289.36,311.555,289.36z M295.18,317.36l-4.625,8h40l-4.583-8H295.18z M321.055,289.36h-2.5v10
	c0,0.09-0.125,1.875-0.125,1.875l14.125,24.125c0,1.1-0.9,2-2,2h-40c-1.1,0-2-0.9-2-2l14-24c0,0,0-1.91,0-2v-10h-2.5
	c-0.28,0-0.5-0.22-0.5-0.5v-1c0-0.28,0.22-0.5,0.5-0.5h4.5v14h0l-8.333,14h28.583l-8.25-14v-14h4.5c0.28,0,0.5,0.22,0.5,0.5v1
	C321.555,289.14,321.335,289.36,321.055,289.36z"/>
<path fill-rule="evenodd" clip-rule="evenodd" fill="#1384ED" d="M217.555,307.36v-10l7,5L217.555,307.36z M220.555,311.36
	c4.97,0,9-4.03,9-9c0-4.97-4.03-9-9-9c-4.97,0-9,4.03-9,9C211.555,307.33,215.585,311.36,220.555,311.36z M220.555,291.36
	c6.08,0,11,4.92,11,11c0,6.08-4.92,11-11,11c-6.08,0-11-4.92-11-11C209.555,296.28,214.475,291.36,220.555,291.36z M242.555,287.36
	h-44v30h44V287.36z M242.555,319.36h-15v3h3v2h-20v-2h3v-3h-15c-1.1,0-2-0.9-2-2v-30c0-1.1,0.9-2,2-2h44c1.1,0,2,0.9,2,2v30
	C244.555,318.46,243.655,319.36,242.555,319.36z"/>
<path fill-rule="evenodd" clip-rule="evenodd" fill="#EDC213" d="M144.555,301.36h-32v-2h32V301.36z M112.555,294.36h36v2h-36
	V294.36z M112.555,304.36h36v2h-36V304.36z M112.555,309.36h33v2h-33V309.36z M152.555,289.36h-44v27h3h2v4l4.8-4h3.2h31V289.36z
	 M152.555,318.36h-33.22l-7.78,7v-7h-3c-1.1,0-2-0.9-2-2v-27c0-1.1,0.9-2,2-2h44c1.1,0,2,0.9,2,2v27
	C154.555,317.46,153.655,318.36,152.555,318.36z"/>
<path fill-rule="evenodd" clip-rule="evenodd" fill="#EDC213" d="M671.555,197.41v10.05c3.06,0.44,5.47,2.85,5.91,5.9h10.04
	C687.005,204.77,680.145,197.91,671.555,197.41z M665.665,213.36h3.89v-3.9C667.595,209.86,666.065,211.4,665.665,213.36z
	 M669.555,197.41c-8.59,0.5-15.45,7.36-15.95,15.95h10.04c0.44-3.05,2.85-5.46,5.91-5.9V197.41z M669.555,231.31v-10.05
	c-3.06-0.44-5.47-2.85-5.91-5.9h-10.04C654.105,223.95,660.965,230.81,669.555,231.31z M669.555,215.36h-3.89
	c0.4,1.96,1.93,3.5,3.89,3.9V215.36z M675.445,215.36h-3.89v3.9C673.515,218.86,675.045,217.32,675.445,215.36z M671.555,213.36
	h3.89c-0.4-1.96-1.93-3.5-3.89-3.9V213.36z M671.555,231.31c8.59-0.5,15.45-7.36,15.95-15.95h-10.04c-0.44,3.05-2.85,5.46-5.91,5.9
	V231.31z M694.555,215.36h-5.05c-0.5,9.69-8.26,17.44-17.95,17.95v5.05h-2v-5.05c-9.69-0.51-17.44-8.26-17.95-17.95h-5.05v-2h5.05
	c0.5-9.69,8.26-17.44,17.95-17.95v-5.05h2v5.05c9.69,0.51,17.45,8.26,17.95,17.95h5.05V215.36z"/>
<path fill-rule="evenodd" clip-rule="evenodd" fill="#D45EBA" d="M583.555,207.36c3.87,0,7,3.13,7,7s-3.13,7-7,7s-7-3.13-7-7
	c0-0.12,0.03-0.23,0.04-0.35l-5.88-1.57c-0.1,0.63-0.16,1.27-0.16,1.92c0,7.18,5.82,13,13,13s13-5.82,13-13c0-7.18-5.82-13-13-13
	c-5.83,0-10.76,3.84-12.41,9.12l5.83,1.57C577.935,209.32,580.505,207.36,583.555,207.36z M583.815,215.95l-5.24-1.41
	c0.1,2.68,2.28,4.82,4.98,4.82c2.76,0,5-2.24,5-5s-2.24-5-5-5c-2.13,0-3.93,1.33-4.65,3.2l5.43,1.46L583.815,215.95z
	 M583.555,195.36c-8.61,0-15.87,5.72-18.2,13.57l3.86,1.04c1.88-6.14,7.59-10.61,14.34-10.61c8.28,0,15,6.72,15,15s-6.72,15-15,15
	c-8.28,0-15-6.72-15-15c0-0.83,0.09-1.65,0.22-2.44l-3.89-1.04c-0.21,1.13-0.33,2.29-0.33,3.48c0,10.49,8.51,19,19,19s19-8.51,19-19
	S594.045,195.36,583.555,195.36z M583.555,235.36c-11.6,0-21-9.4-21-21c0-1.18,0.12-2.33,0.31-3.46l-3,1.74l-3.87-1.04l2.97-3.35
	l3.86,1.04l-3.86-1.04l-0.9-4.38l3.87,1.04l1.68,2.92c2.75-8.39,10.63-14.47,19.94-14.47c11.6,0,21,9.4,21,21
	S595.155,235.36,583.555,235.36z"/>
<path fill-rule="evenodd" clip-rule="evenodd" fill="#1384ED" d="M470.555,223.36h40v-26h2v26c0,1.1-0.9,2-2,2h-17.04l6.91,10.7
	l-1.74,1l-7.13-11.05v11.35h-2v-11.35l-7.13,11.05l-1.74-1l6.91-10.7h-17.04c-1.1,0-2-0.9-2-2v-26h2V223.36z M491.555,216.36
	c-0.55,0-1,0.45-1,1s0.45,1,1,1c0.55,0,1-0.45,1-1S492.105,216.36,491.555,216.36z M475.555,213.36c-0.55,0-1,0.45-1,1s0.45,1,1,1
	c0.55,0,1-0.45,1-1S476.105,213.36,475.555,213.36z M505.555,206.36c0.55,0,1-0.45,1-1s-0.45-1-1-1c-0.55,0-1,0.45-1,1
	S505.005,206.36,505.555,206.36z M505.555,202.36c1.66,0,3,1.34,3,3s-1.34,3-3,3c-0.42,0-0.83-0.09-1.19-0.25l-9.87,8.63
	c0.04,0.2,0.06,0.41,0.06,0.62c0,1.66-1.34,3-3,3c-1.25,0-2.32-0.77-2.77-1.86l-10.71-2.52c-0.53,0.83-1.46,1.38-2.52,1.38
	c-1.66,0-3-1.34-3-3s1.34-3,3-3c1.54,0,2.8,1.17,2.97,2.67l10.19,2.4c0.39-1.2,1.51-2.07,2.84-2.07c0.71,0,1.35,0.26,1.86,0.66
	l9.49-8.29c-0.22-0.41-0.35-0.87-0.35-1.37C502.555,203.7,503.895,202.36,505.555,202.36z M497.445,199.97l-1.42,7.07l-2.12-2.12
	l-3.53,3.54l-1.42-1.42l3.54-3.53l-2.12-2.12L497.445,199.97z M510.555,195.36h-40h-4v-2h22v-2h4v2h22v2H510.555z"/>
<path fill-rule="evenodd" clip-rule="evenodd" fill="#ED5113" d="M382.555,213.36c-1.1,0-2,0.9-2,2s0.9,2,2,2s2-0.9,2-2
	S383.655,213.36,382.555,213.36z M383.555,219.22v17.14h-2v-17.14c-1.72-0.45-3-2-3-3.86s1.28-3.41,3-3.86v-19.14h2v19.14
	c1.72,0.45,3,2,3,3.86S385.275,218.77,383.555,219.22z M394.555,209.36c-1.1,0-2,0.9-2,2s0.9,2,2,2s2-0.9,2-2
	S395.655,209.36,394.555,209.36z M395.555,215.22v21.14h-2v-21.14c-1.72-0.45-3-2-3-3.86s1.28-3.41,3-3.86v-15.14h2v15.14
	c1.72,0.45,3,2,3,3.86S397.275,214.77,395.555,215.22z M406.555,221.36c-1.1,0-2,0.9-2,2s0.9,2,2,2s2-0.9,2-2
	S407.655,221.36,406.555,221.36z M407.555,227.22v9.14h-2v-9.14c-1.72-0.45-3-2-3-3.86s1.28-3.41,3-3.86v-27.14h2v27.14
	c1.72,0.45,3,2,3,3.86S409.275,226.77,407.555,227.22z M418.555,202.36c-1.1,0-2,0.9-2,2s0.9,2,2,2s2-0.9,2-2
	S419.655,202.36,418.555,202.36z M419.555,208.22v28.14h-2v-28.14c-1.72-0.45-3-2-3-3.86s1.28-3.41,3-3.86v-8.14h2v8.14
	c1.72,0.45,3,2,3,3.86S421.275,207.77,419.555,208.22z"/>
<path fill-rule="evenodd" clip-rule="evenodd" fill="#BB9066" d="M321.555,209.36c0-8.84-7.16-16-16-16s-16,7.16-16,16
	s7.16,16,16,16S321.555,218.2,321.555,209.36z M333.455,235.85l-1.41,1.41l-14.5-14.5c-3.19,2.85-7.38,4.6-11.99,4.6
	c-9.94,0-18-8.06-18-18s8.06-18,18-18s18,8.06,18,18c0,4.61-1.75,8.8-4.6,11.99L333.455,235.85z"/>
<path fill-rule="evenodd" clip-rule="evenodd" fill="#81C975" d="M220.555,199.36c-5.52,0-10,4.48-10,10s4.48,10,10,10
	c5.52,0,10-4.48,10-10S226.075,199.36,220.555,199.36z M220.555,221.36c-6.63,0-12-5.37-12-12s5.37-12,12-12c6.63,0,12,5.37,12,12
	S227.185,221.36,220.555,221.36z M220.555,194.36c-8.28,0-15,6.75-15,15.07c0,1.17,0.15,2.31,0.4,3.4c-0.01,0.05-0.04,0.1-0.04,0.14
	c0,4.61,14.64,20.39,14.64,20.39s14.61-15.5,14.61-20.39c0-0.03-0.02-0.06-0.02-0.09c0.26-1.11,0.41-2.26,0.41-3.45
	C235.555,201.11,228.835,194.36,220.555,194.36z M237.085,213.26c0.01,0.03,0.03,0.06,0.03,0.1c0,5.51-16.56,23-16.56,23
	s-16.59-17.8-16.59-23c0-0.05,0.03-0.1,0.04-0.16c-0.28-1.23-0.45-2.52-0.45-3.84c0-9.39,7.61-17,17-17c9.39,0,17,7.61,17,17
	C237.555,210.7,237.385,212,237.085,213.26z"/>
<path fill-rule="evenodd" clip-rule="evenodd" fill="#ED5113" d="M136.555,207.36h7v-6h-7V207.36z M134.555,199.36h11v10h-11V199.36
	z M145.555,225.36h-24v-2h24V225.36z M145.555,221.36h-24v-2h24V221.36z M145.555,217.36h-24v-2h24V217.36z M145.555,213.36h-24v-2
	h24V213.36z M132.555,209.36h-11v-2h11V209.36z M132.555,205.36h-11v-2h11V205.36z M132.555,201.36h-11v-2h11V201.36z
	 M149.555,193.36h-32v37h32V193.36z M115.555,230.36v-32h-3v37h32v-3h-27C116.455,232.36,115.555,231.46,115.555,230.36z
	 M149.555,232.36h-3v3c0,1.1-0.9,2-2,2h-32c-1.1,0-2-0.9-2-2v-37c0-1.1,0.9-2,2-2h3v-3c0-1.1,0.9-2,2-2h32c1.1,0,2,0.9,2,2v37
	C151.555,231.46,150.655,232.36,149.555,232.36z"/>
<path fill-rule="evenodd" clip-rule="evenodd" fill="#81C975" d="M659.745,123.61l-5.75,5.75l-1.44-1.44l5.75-5.75L659.745,123.61z
	 M657.555,118.36h-8v-2h8V118.36z M653.245,107.46l1.41-1.41l5.66,5.65l-1.42,1.42L653.245,107.46z M663.555,102.36h2v8h-2V102.36z
	 M668.365,112.11l5.75-5.75l1.44,1.44l-5.75,5.75L668.365,112.11z M671.555,116.36h8v2h-8V116.36z M689.665,130.95l-3.93-6.78
	c-0.35-0.6-0.51-0.64-1.11-0.78c-0.47-0.11-1.23,0.04-1.35,0.09l-2.31,1.33c-0.36,0.2-0.81,0.17-1.13-0.09
	c-0.38-0.3-0.57-0.42-0.66-0.47l-0.03,0.01l-2.39,1.41c-0.48,0.28-1.1,0.13-1.38-0.35c-0.08-0.13-0.14-0.21-0.18-0.26l-0.23,0.1
	l-0.13,0.06l-2.31,1.33c-0.24,0.13-0.51,0.17-0.77,0.1s-0.48-0.24-0.61-0.47l-4.01-6.91c-0.2-0.38-0.75-0.91-1.51-0.91
	c-0.32,0-0.66,0.1-1.01,0.3c-0.45,0.26-0.72,0.56-0.81,0.9c-0.14,0.52,0.16,1.11,0.29,1.34l6.77,11.66c0.2,0.35,0.18,0.78-0.07,1.11
	c-0.25,0.32-0.66,0.46-1.06,0.36c-0.34-0.09-0.71-0.2-1.08-0.31c-0.94-0.28-2.01-0.59-2.67-0.59c-0.2,0-0.27,0.03-0.28,0.03
	c-1.72,0.99-1.28,1.83-1.04,2.27c0.35,0.68,0.78,1,0.95,1.12l0.1,0.08l11.96,5.32c0.19,0.08,0.35,0.23,0.46,0.41l1.52,2.63
	l10.77-6.18L689.665,130.95z M691.985,140.22l-12.19,7c-0.16,0.1-0.33,0.14-0.5,0.14c-0.35,0-0.69-0.18-0.88-0.5l-1.86-3.22
	l-11.8-5.24c-0.1-0.05-0.19-0.11-0.27-0.18l-0.09-0.08c-0.23-0.16-0.94-0.7-1.51-1.77c-1.01-1.9-0.34-3.7,1.82-4.95
	c0.74-0.42,1.9-0.32,3.18,0l-5.52-9.51c-0.33-0.55-0.83-1.65-0.51-2.86c0.23-0.87,0.82-1.59,1.75-2.12
	c0.66-0.38,1.34-0.57,2.02-0.57c1.57,0,2.8,1.02,3.28,1.96l3.48,5.99l1.49-0.85l0.11-0.06l0.15-0.06c0.3-0.14,0.67-0.3,1.12-0.3
	s0.85,0.16,1.21,0.47l1.71-1c0.28-0.15,0.6-0.29,1-0.29c0.48,0,0.91,0.21,1.36,0.52l1.79-1.03c0.35-0.21,1.15-0.37,1.84-0.37
	c0.33,0,0.64,0.03,0.92,0.1c0.91,0.21,1.66,0.47,2.39,1.73l4.05,6.96c0.07,0.13,0.11,0.27,0.13,0.41l0.83,8.72
	C692.525,139.65,692.325,140.03,691.985,140.22z"/>
<path fill-rule="evenodd" clip-rule="evenodd" fill="#EDC213" d="M569.555,119.36h-10v20h10V119.36z M569.555,141.36h-10
	c-1.1,0-2-0.9-2-2v-20c0-1.1,0.9-2,2-2h10c1.1,0,2,0.9,2,2v20C571.555,140.46,570.655,141.36,569.555,141.36z M585.555,106.36h-10
	v33h10V106.36z M585.555,141.36h-10c-1.1,0-2-0.9-2-2v-33c0-1.1,0.9-2,2-2h10c1.1,0,2,0.9,2,2v33
	C587.555,140.46,586.655,141.36,585.555,141.36z M601.555,125.36h-10v14h10V125.36z M601.555,141.36h-10c-1.1,0-2-0.9-2-2v-14
	c0-1.1,0.9-2,2-2h10c1.1,0,2,0.9,2,2v14C603.555,140.46,602.655,141.36,601.555,141.36z M557.555,145.36v-2h46v2H557.555z"/>
<path fill-rule="evenodd" clip-rule="evenodd" fill="#BB9066" d="M504.555,108.36c-1.66,0-3,1.34-3,3c0,1.66,1.34,3,3,3s3-1.34,3-3
	C507.555,109.7,506.215,108.36,504.555,108.36z M489.555,121.36c-2.21,0-4,1.79-4,4s1.79,4,4,4c2.21,0,4-1.79,4-4
	S491.765,121.36,489.555,121.36z M486.555,106.36c0-1.66-1.34-3-3-3s-3,1.34-3,3c0,1.66,1.34,3,3,3S486.555,108.02,486.555,106.36z
	 M472.555,116.36c-1.1,0-2,0.9-2,2s0.9,2,2,2s2-0.9,2-2S473.655,116.36,472.555,116.36z M476.555,135.36c-1.66,0-3,1.34-3,3
	s1.34,3,3,3s3-1.34,3-3S478.215,135.36,476.555,135.36z M490.555,142.36c1.1,0,2-0.9,2-2s-0.9-2-2-2s-2,0.9-2,2
	S489.455,142.36,490.555,142.36z M506.555,140.36c1.1,0,2-0.9,2-2s-0.9-2-2-2s-2,0.9-2,2S505.455,140.36,506.555,140.36z
	 M504.555,116.36c-1.05,0-2.03-0.33-2.83-0.88l-6.93,7.02c0.47,0.85,0.76,1.82,0.76,2.86c0,1.13-0.33,2.17-0.87,3.08l8.93,7.23
	c0.73-0.8,1.77-1.31,2.94-1.31c2.21,0,4,1.79,4,4s-1.79,4-4,4c-2.21,0-4-1.79-4-4c0-0.31,0.04-0.6,0.11-0.89l-9.29-7.52
	c-1.04,0.87-2.36,1.41-3.82,1.41c-1.38,0-2.64-0.49-3.65-1.27l-4.75,6.41c0.17,0.43,0.3,0.88,0.35,1.36l5.34,1.01
	c0.59-1.47,2.03-2.51,3.71-2.51c2.21,0,4,1.79,4,4s-1.79,4-4,4c-2.04,0-3.7-1.53-3.95-3.5l-5.3-1.01c-0.64,2.03-2.51,3.51-4.75,3.51
	c-2.76,0-5-2.24-5-5s2.24-5,5-5c1.38,0,2.61,0.57,3.5,1.47l4.53-6.11c-0.65-0.96-1.03-2.11-1.03-3.36c0-2.22,1.21-4.13,3-5.17
	l-3.18-8.85c-0.94-0.03-1.8-0.33-2.54-0.81l-4.82,5.85c0.33,0.59,0.54,1.26,0.54,1.98c0,2.21-1.79,4-4,4c-2.21,0-4-1.79-4-4
	s1.79-4,4-4c0.77,0,1.48,0.23,2.09,0.6l4.78-5.8c-0.55-0.8-0.87-1.76-0.87-2.8c0-2.76,2.24-5,5-5c2.76,0,5,2.24,5,5
	c0,2.12-1.32,3.92-3.19,4.65l3.04,8.47c0.37-0.08,0.76-0.12,1.15-0.12c1.58,0,3.01,0.62,4.08,1.63l6.76-6.86
	c-0.53-0.79-0.84-1.74-0.84-2.77c0-2.76,2.24-5,5-5c2.76,0,5,2.24,5,5S507.315,116.36,504.555,116.36z"/>
<path fill-rule="evenodd" clip-rule="evenodd" fill="#81C975" d="M416.555,109.36h-38v24h30v2h-6v3h3v2h-16v-2h3v-3h-14
	c-1.1,0-2-0.9-2-2v-24c0-1.1,0.9-2,2-2h38c1.1,0,2,0.9,2,2v8h-2V109.36z M422.555,122.36h-10v17h10V122.36z M419.555,120.36h-4v1h4
	V120.36z M417.555,142.36c0.55,0,1-0.45,1-1s-0.45-1-1-1c-0.55,0-1,0.45-1,1S417.005,142.36,417.555,142.36z M422.555,143.36h-10
	c-1.1,0-2-0.9-2-2v-20c0-1.1,0.9-2,2-2h10c1.1,0,2,0.9,2,2v20C424.555,142.46,423.655,143.36,422.555,143.36z"/>
<path fill-rule="evenodd" clip-rule="evenodd" fill="#1384ED" d="M292.555,112.36c-1.1,0-2-0.9-2-2s0.9-2,2-2s2,0.9,2,2
	S293.655,112.36,292.555,112.36z M298.555,112.36c-1.1,0-2-0.9-2-2s0.9-2,2-2s2,0.9,2,2S299.655,112.36,298.555,112.36z
	 M304.555,112.36c-1.1,0-2-0.9-2-2s0.9-2,2-2s2,0.9,2,2S305.655,112.36,304.555,112.36z M288.555,106.36v8h44v-8H288.555z
	 M291.555,142.36v-0.5c0-2.47,4.4-3.24,5.18-3.36c0.31-1.12,0.77-2.17,1.32-3.16c-0.21-0.32-3.01-4.53-1.45-6.08l0.89-0.76
	c1.76-1.75,5.4,0.89,6,1.34c1.01-0.57,2.08-1.04,3.22-1.36c0.2-0.82,1.34-5.12,3.41-5.12h0.93c2.36,0,3.17,4.04,3.34,5.09
	c1.16,0.31,2.25,0.78,3.27,1.36c0.69-0.46,4.48-2.87,5.95-1.4l0.84,0.89c1.68,1.68-0.71,5.12-1.34,5.94
	c0.59,1.03,1.06,2.13,1.38,3.3v-0.06c0,0,5.06,0.67,5.06,3.38v0.5h3v-26h-44v26H291.555z M303.265,142.36h14.6v-0.04
	c0-4-3.38-7.25-7.37-7.25s-7.23,3.25-7.23,7.25V142.36z M332.555,144.36h-3.91h-11.08h-13.98h-11.12h-3.91c-1.1,0-2-0.9-2-2v-36
	c0-1.1,0.9-2,2-2h44c1.1,0,2,0.9,2,2v36C334.555,143.46,333.655,144.36,332.555,144.36z"/>
<path fill-rule="evenodd" clip-rule="evenodd" fill="#ED5113" d="M205.555,126.36c0.55,0,1-0.45,1-1s-0.45-1-1-1c-0.55,0-1,0.45-1,1
	S205.005,126.36,205.555,126.36z M221.555,129.36c0.55,0,1-0.45,1-1s-0.45-1-1-1c-0.55,0-1,0.45-1,1S221.005,129.36,221.555,129.36z
	 M235.555,117.36c0.55,0,1-0.45,1-1s-0.45-1-1-1c-0.55,0-1,0.45-1,1S235.005,117.36,235.555,117.36z M205.555,122.36
	c1.54,0,2.8,1.17,2.97,2.67l10.19,2.4c0.39-1.2,1.51-2.07,2.84-2.07c0.71,0,1.35,0.26,1.86,0.66l9.49-8.29
	c-0.22-0.41-0.35-0.87-0.35-1.37c0-1.66,1.34-3,3-3c1.66,0,3,1.34,3,3c0,1.66-1.34,3-3,3c-0.42,0-0.83-0.09-1.19-0.25l-9.87,8.63
	c0.04,0.2,0.06,0.41,0.06,0.62c0,1.66-1.34,3-3,3c-1.25,0-2.32-0.77-2.77-1.86l-10.71-2.52c-0.53,0.83-1.46,1.38-2.52,1.38
	c-1.66,0-3-1.34-3-3C202.555,123.7,203.895,122.36,205.555,122.36z M242.555,107.36h-44v30h44V107.36z M242.555,139.36h-15v3h3v2
	h-20v-2h3v-3h-15c-1.1,0-2-0.9-2-2v-30c0-1.1,0.9-2,2-2h44c1.1,0,2,0.9,2,2v30C244.555,138.46,243.655,139.36,242.555,139.36z"/>
<path fill-rule="evenodd" clip-rule="evenodd" fill="#EDC213" d="M119.695,129.13l4.28-2.45l0.99,1.7l-4.28,2.45l8.9,15.29
	l13.71-7.85l-8.9-15.28l-4.29,2.45l-0.99-1.7l4.29-2.45c0.27-0.16,0.57-0.24,0.87-0.26c0.68,0.65,1.43,1.22,2.25,1.69l8.48,14.57
	c0.55,0.94,0.23,2.14-0.72,2.68l-13.71,7.85c-0.94,0.54-2.15,0.22-2.7-0.72l-8.9-15.29
	C118.425,130.87,118.745,129.67,119.695,129.13z M128.665,130.8l-6.93-11.9l1.71-0.98l6.93,11.9L128.665,130.8z M132.415,119.59
	l-4.28,2.45l-0.99-1.7l4.28-2.45l-8.9-15.29l-13.71,7.85l8.9,15.28l4.29-2.45l0.99,1.7l-4.29,2.45c-0.94,0.55-2.15,0.22-2.7-0.71
	l-8.9-15.29c-0.55-0.94-0.23-2.14,0.72-2.68l13.71-7.85c0.94-0.54,2.15-0.22,2.7,0.72l6.33,10.86c0.02,2.55,0.84,4.9,2.22,6.83
	C132.675,119.41,132.555,119.51,132.415,119.59z M143.555,117.36h-2v-4h-4v-2h4v-4h2v4h4v2h-4V117.36z M142.555,104.36
	c-4.42,0-8,3.58-8,8s3.58,8,8,8c4.42,0,8-3.58,8-8S146.975,104.36,142.555,104.36z M142.555,122.36c-5.52,0-10-4.48-10-10
	c0-5.52,4.48-10,10-10c5.52,0,10,4.48,10,10C152.555,117.88,148.075,122.36,142.555,122.36z"/>
</svg>
